# 3ds Max Wavefront OBJ Exporter v0.97b - (c)2007 guruware
# File Created: 17.05.2015 03:44:53

#
# object Meteor
#

v  3.0726 -1.7547 -1.2638
v  1.7759 -0.8714 -1.8745
v  3.9027 -0.2096 -1.5652
v  0.0718 -0.2042 2.6907
v  1.4199 0.8289 1.6411
v  0.0549 0.7336 1.8051
v  -3.4671 -1.2906 -0.6390
v  -4.0502 -0.3440 0.7191
v  -3.5548 -0.2550 -1.6051
v  -4.0509 1.0717 0.3589
v  -4.0149 0.5874 -1.2125
v  0.4902 0.0086 -1.8271
v  1.3058 2.0669 -3.3289
v  2.1434 0.3709 -2.9330
v  -3.6293 -2.5635 0.9945
v  -2.7549 -2.0996 1.5885
v  -3.4078 -0.3177 2.2284
v  -0.2975 2.3596 -3.4242
v  -1.5653 1.5177 -3.6425
v  -0.8253 3.6095 -2.5110
v  -1.7974 -1.4028 -3.1962
v  -2.7281 -2.6730 -3.0172
v  -2.9757 -1.5617 -2.2066
v  -2.3164 3.0559 -0.8883
v  -2.4506 2.3785 -2.0782
v  -1.1240 -0.5550 -3.1350
v  0.3358 -2.1468 -2.2368
v  -1.0054 -1.8791 -2.8691
v  -3.8420 -1.9967 0.0392
v  2.4171 -1.2249 0.8922
v  1.3303 -2.0090 2.5468
v  2.9223 -3.0173 1.3997
v  -3.3198 0.4460 1.3901
v  -3.6478 2.1579 0.2349
v  -2.1481 1.4249 1.3757
v  -1.8898 2.3847 1.3359
v  -3.3842 1.5804 -2.2188
v  -2.0688 0.9338 -3.3796
v  -2.4723 -0.1109 -2.3081
v  3.7282 -2.1705 -0.7111
v  2.9058 -0.5077 -0.3900
v  -3.5465 -2.8086 -1.1495
v  -2.5466 -3.7479 -1.3868
v  -1.9459 -0.4220 -2.9117
v  -2.0953 3.3513 0.8340
v  -2.8255 2.8323 0.4182
v  2.5603 1.4311 -0.4224
v  3.4084 1.0303 -1.0085
v  2.2532 3.1568 -0.3452
v  1.8513 4.1353 -2.3139
v  0.8381 4.4938 -1.4263
v  -1.0687 -1.5065 2.1495
v  -1.0195 -0.9156 3.3051
v  -2.4033 -0.3706 3.4235
v  -0.0075 3.3366 -0.3272
v  -0.4536 0.3522 -2.7037
v  -3.1546 0.9969 -1.9631
v  1.3600 3.6501 -0.1165
v  -1.0225 -4.3301 0.0661
v  -1.5675 1.2085 2.1810
v  -3.5264 2.7198 -1.1588
v  0.7781 -3.4851 0.2692
v  2.8168 2.5411 -2.4902
v  4.2083 1.5749 -2.2982
v  -0.6080 2.7557 1.8493
v  0.1534 -2.0347 1.4113
v  1.6148 -4.6110 -1.1654
v  -0.6287 -3.9545 -1.0176
v  2.7162 -3.9605 0.1947
v  1.2782 -0.4016 1.3806
v  -1.8917 -2.7271 -2.3062
v  0.7251 3.6874 -3.2843
v  1.5251 0.3169 0.5807
v  1.3711 2.9026 1.5095
v  0.3908 -1.7277 3.8252
v  -1.2692 3.6812 1.5835
v  1.5432 -3.4462 -2.0789
# 77 vertices

vn 0.4451 -0.2143 -0.8695
vn 0.1369 -0.2475 -0.9592
vn 0.9446 -0.2862 -0.1609
vn 0.0497 0.6482 0.7599
vn 0.7239 0.0733 0.6860
vn 0.1560 0.3766 0.9132
vn -0.9486 -0.0554 -0.3117
vn -0.9831 -0.0091 0.1828
vn -0.8112 -0.1631 -0.5615
vn -0.8982 0.2778 0.3405
vn -0.9300 -0.0172 -0.3671
vn 0.2114 -0.2724 -0.9387
vn 0.2254 -0.0808 -0.9709
vn 0.0644 -0.3972 -0.9155
vn -0.6938 -0.5498 0.4652
vn -0.1976 -0.5895 0.7832
vn -0.7894 0.1540 0.5943
vn -0.0667 0.1063 -0.9921
vn -0.2084 0.1321 -0.9691
vn -0.4468 0.8055 -0.3892
vn -0.1725 -0.0528 -0.9836
vn -0.3876 -0.4098 -0.8257
vn -0.8198 0.1150 -0.5610
vn -0.2980 0.9436 -0.1444
vn -0.4775 0.6490 -0.5922
vn 0.3581 -0.0792 -0.9303
vn 0.1830 -0.2172 -0.9588
vn 0.3080 -0.4068 -0.8600
vn -0.9849 -0.1128 -0.1311
vn 0.7156 0.4176 0.5600
vn 0.4428 -0.4906 0.7505
vn 0.6105 -0.3774 0.6963
vn -0.6425 0.5164 0.5661
vn -0.8032 0.4404 0.4012
vn -0.6030 0.3990 0.6907
vn -0.5644 0.2564 0.7847
vn -0.7479 0.1668 -0.6425
vn -0.5515 -0.0515 -0.8326
vn -0.6939 -0.0732 -0.7164
vn 0.9747 -0.1679 -0.1477
vn 0.7279 0.2414 0.6418
vn -0.9054 -0.3647 -0.2174
vn -0.3554 -0.8803 -0.3144
vn -0.8864 -0.0568 -0.4594
vn -0.5442 0.7850 0.2960
vn -0.5913 0.6949 0.4093
vn 0.7162 0.0538 0.6959
vn 0.7348 0.1240 0.6668
vn 0.7513 0.5491 0.3660
vn 0.5425 0.7689 -0.3383
vn -0.0614 0.9850 0.1611
vn -0.1421 -0.8445 0.5163
vn -0.2003 -0.1672 0.9654
vn -0.3389 0.0327 0.9403
vn -0.1833 0.9445 0.2727
vn 0.4939 -0.2324 -0.8379
vn -0.6981 -0.3698 -0.6131
vn 0.1809 0.8807 0.4378
vn 0.0233 -0.9522 0.3046
vn -0.1917 0.4953 0.8473
vn -0.7271 0.6393 -0.2502
vn -0.0664 -0.8008 0.5952
vn 0.6047 0.4986 -0.6211
vn 0.9072 0.2206 -0.3583
vn 0.0872 0.4512 0.8881
vn -0.1955 -0.7687 0.6090
vn 0.2258 -0.9411 -0.2515
vn 0.0287 -0.8891 -0.4568
vn 0.4833 -0.8493 0.2123
vn 0.9363 0.1893 0.2957
vn 0.2878 -0.7195 -0.6320
vn 0.0609 0.5651 -0.8228
vn 0.8581 -0.0049 0.5135
vn 0.4345 0.5461 0.7162
vn 0.1348 -0.4094 0.9023
vn -0.0920 0.7950 0.5997
vn 0.2402 -0.3918 -0.8882
# 77 vertex normals

vt 0.3501 0.1628 0.0000
vt 0.3995 0.1050 0.0000
vt 0.4194 0.2100 0.0000
vt 0.1689 0.5005 0.0000
vt 0.2217 0.5768 0.0000
vt 0.1628 0.5580 0.0000
vt 0.7802 0.6456 0.0000
vt 0.8153 0.7196 0.0000
vt 0.7199 0.6664 0.0000
vt 0.7676 0.7709 0.0000
vt 0.7193 0.7130 0.0000
vt 0.4424 0.0463 0.0000
vt 0.5521 0.0858 0.0000
vt 0.4732 0.1219 0.0000
vt 0.8798 0.6357 0.0000
vt 0.9210 0.6713 0.0000
vt 0.8811 0.7535 0.0000
vt 0.5058 0.6822 0.0000
vt 0.5709 0.6702 0.0000
vt 0.5065 0.7620 0.0000
vt 0.7082 0.4357 0.0000
vt 0.7378 0.5023 0.0000
vt 0.6737 0.4978 0.0000
vt 0.5989 0.8172 0.0000
vt 0.6035 0.7532 0.0000
vt 0.6025 0.5778 0.0000
vt 0.5823 0.4728 0.0000
vt 0.6309 0.5225 0.0000
vt 0.8274 0.6371 0.0000
vt 0.3046 0.2944 0.0000
vt 0.2169 0.3455 0.0000
vt 0.2393 0.2494 0.0000
vt 0.8341 0.7757 0.0000
vt 0.7274 0.8104 0.0000
vt 0.7982 0.8677 0.0000
vt 0.7634 0.8985 0.0000
vt 0.6513 0.7254 0.0000
vt 0.6017 0.6600 0.0000
vt 0.6684 0.6397 0.0000
vt 0.3252 0.1938 0.0000
vt 0.3694 0.2642 0.0000
vt 0.7485 0.4151 0.0000
vt 0.7995 0.5750 0.0000
vt 0.8244 0.5183 0.0000
vt 0.6514 0.5636 0.0000
vt 0.6446 0.6100 0.0000
vt 0.6046 0.8988 0.0000
vt 0.6376 0.8712 0.0000
vt 0.4373 0.3213 0.0000
vt 0.4482 0.2712 0.0000
vt 0.4988 0.3756 0.0000
vt 0.6010 0.3679 0.0000
vt 0.5855 0.4317 0.0000
vt 0.1036 0.3859 0.0000
vt 0.1230 0.4489 0.0000
vt 0.0576 0.4736 0.0000
vt 0.4297 0.8255 0.0000
vt 0.5001 0.8690 0.0000
vt 0.5084 0.5411 0.0000
vt 0.5456 0.5903 0.0000
vt 0.4399 0.6431 0.0000
vt 0.6674 0.7000 0.0000
vt 0.5227 0.4920 0.0000
vt 0.5111 0.4248 0.0000
vt 0.9181 0.4880 0.0000
vt 0.8325 0.8983 0.0000
vt 0.8249 0.8030 0.0000
vt 0.6571 0.7959 0.0000
vt 0.1362 0.2357 0.0000
vt 0.5610 0.2903 0.0000
vt 0.5097 0.2286 0.0000
vt 0.0877 0.5596 0.0000
vt 0.1105 0.6402 0.0000
vt 0.0165 0.3731 0.0000
vt 0.1406 0.3258 0.0000
vt 0.7213 0.5941 0.0000
vt 0.1519 0.1505 0.0000
vt 0.0586 0.1803 0.0000
vt 0.2219 0.1846 0.0000
vt 0.3109 0.3589 0.0000
vt 0.7773 0.4695 0.0000
vt 0.8759 0.4462 0.0000
vt 0.4431 0.7188 0.0000
vt 0.3508 0.4009 0.0000
vt 0.3597 0.3492 0.0000
vt 0.3779 0.7378 0.0000
vt 0.0442 0.2324 0.0000
vt 0.4337 0.4395 0.0000
vt 0.4079 0.8013 0.0000
vt 0.1967 0.4187 0.0000
vt 0.7776 0.9629 0.0000
vt 0.5758 0.9434 0.0000
vt 0.4109 0.5235 0.0000
vt 0.2820 0.0732 0.0000
vt 0.5302 0.9717 0.0000
vt 0.1382 0.0918 0.0000
vt 0.3515 0.0284 0.0000
vt 0.8760 0.8625 0.0000
vt 0.7989 0.3662 0.0000
vt 0.5668 0.1687 0.0000
vt 0.9437 0.7872 0.0000
vt 0.7201 0.5645 0.0000
vt 0.7122 0.9025 0.0000
vt 0.7132 0.8572 0.0000
vt 0.9331 0.6354 0.0000
vt 0.6477 0.1385 0.0000
vt 0.7252 0.9539 0.0000
vt 0.0582 0.0689 0.0000
# 108 texture coords

g Meteor
usemtl default
s 1
f 1/1/1 2/2/2 3/3/3 
f 4/4/4 5/5/5 6/6/6 
f 7/7/7 8/8/8 9/9/9 
f 10/10/10 11/11/11 8/8/8 
f 12/12/12 13/13/13 14/14/14 
f 15/15/15 16/16/16 17/17/17 
f 18/18/18 19/19/19 20/20/20 
f 21/21/21 22/22/22 23/23/23 
f 24/24/24 20/20/20 25/25/25 
f 26/26/26 27/27/27 28/28/28 
f 29/29/29 8/8/8 7/7/7 
f 30/30/30 31/31/31 32/32/32 
f 8/8/8 17/17/17 33/33/33 
f 34/34/34 35/35/35 36/36/36 
f 37/37/37 38/38/38 39/39/39 
f 40/40/40 3/3/3 41/41/41 
f 25/25/25 20/20/20 19/19/19 
f 38/38/38 37/37/37 25/25/25 
f 28/42/28 22/22/22 21/21/21 
f 42/43/42 22/22/22 43/44/43 
f 38/38/38 21/45/21 44/46/44 
f 45/47/45 24/24/24 46/48/46 
f 47/49/47 41/41/41 48/50/48 
f 34/34/34 10/10/10 35/35/35 
f 49/51/49 50/52/50 51/53/51 
f 3/3/3 40/40/40 1/1/1 
f 52/54/52 53/55/53 54/56/54 
f 51/57/51 20/20/20 55/58/55 
f 12/59/12 56/60/56 13/61/13 
f 11/11/11 37/37/37 57/62/57 
f 56/60/56 18/18/18 13/61/13 
f 55/63/55 58/64/58 51/53/51 
f 43/44/43 59/65/59 15/15/15 
f 60/66/60 35/35/35 33/67/33 
f 34/34/34 61/68/61 37/37/37 
f 32/32/32 31/31/31 62/69/62 
f 63/70/63 49/51/49 64/71/64 
f 53/55/53 60/72/60 54/56/54 
f 65/73/65 60/72/60 6/6/6 
f 25/25/25 19/19/19 38/38/38 
f 16/74/16 66/75/66 52/54/52 
f 23/76/23 9/9/9 39/39/39 
f 31/31/31 66/75/66 62/69/62 
f 67/77/67 62/69/62 68/78/68 
f 32/32/32 69/79/69 40/40/40 
f 21/45/21 38/38/38 26/26/26 
f 30/30/30 70/80/70 31/31/31 
f 36/36/36 35/35/35 60/66/60 
f 71/81/71 68/82/68 43/44/43 
f 13/61/13 18/18/18 72/83/72 
f 47/49/47 5/84/5 73/85/73 
f 64/71/64 48/50/48 3/3/3 
f 13/61/13 72/83/72 50/86/50 
f 59/87/59 62/69/62 66/75/66 
f 40/40/40 41/41/41 30/30/30 
f 58/64/58 74/88/74 49/51/49 
f 64/71/64 3/3/3 14/14/14 
f 50/86/50 72/83/72 51/89/51 
f 52/54/52 31/31/31 75/90/75 
f 33/67/33 35/35/35 10/10/10 
f 7/7/7 23/76/23 42/43/42 
f 43/44/43 68/82/68 59/65/59 
f 63/70/63 50/52/50 49/51/49 
f 17/17/17 8/8/8 15/15/15 
f 11/11/11 34/34/34 37/37/37 
f 3/3/3 48/50/48 41/41/41 
f 61/68/61 24/24/24 25/25/25 
f 74/88/74 58/64/58 55/63/55 
f 60/66/60 65/91/65 36/36/36 
f 41/41/41 73/85/73 30/30/30 
f 29/29/29 7/7/7 42/43/42 
f 23/76/23 7/7/7 9/9/9 
f 76/92/76 55/58/55 45/47/45 
f 65/93/65 74/88/74 55/63/55 
f 29/29/29 15/15/15 8/8/8 
f 1/1/1 40/40/40 77/94/77 
f 70/80/70 73/85/73 5/84/5 
f 26/26/26 56/60/56 27/27/27 
f 76/92/76 65/95/65 55/58/55 
f 4/4/4 53/55/53 75/90/75 
f 77/96/77 67/77/67 68/78/68 
f 27/97/27 12/12/12 2/2/2 
f 47/49/47 73/85/73 41/41/41 
f 33/33/33 17/17/17 60/98/60 
f 49/51/49 48/50/48 64/71/64 
f 5/84/5 75/90/75 31/31/31 
f 71/81/71 27/99/27 68/82/68 
f 63/100/63 64/71/64 14/14/14 
f 12/12/12 14/14/14 2/2/2 
f 8/8/8 11/11/11 9/9/9 
f 44/46/44 23/76/23 39/39/39 
f 53/55/53 6/6/6 60/72/60 
f 47/49/47 74/88/74 5/84/5 
f 17/17/17 54/101/54 60/98/60 
f 22/22/22 42/43/42 23/102/23 
f 57/62/57 9/9/9 11/11/11 
f 16/74/16 52/54/52 54/56/54 
f 5/84/5 31/31/31 70/80/70 
f 31/31/31 52/54/52 66/75/66 
f 62/69/62 67/77/67 69/79/69 
f 32/32/32 62/69/62 69/79/69 
f 53/55/53 52/54/52 75/90/75 
f 12/59/12 27/27/27 56/60/56 
f 67/77/67 77/96/77 69/79/69 
f 30/30/30 32/32/32 40/40/40 
f 72/83/72 18/18/18 20/20/20 
f 77/94/77 27/97/27 2/2/2 
f 45/103/45 46/104/46 36/36/36 
f 19/19/19 18/18/18 56/60/56 
f 58/64/58 49/51/49 51/53/51 
f 24/24/24 45/47/45 55/58/55 
f 55/58/55 20/20/20 24/24/24 
f 59/87/59 66/75/66 16/74/16 
f 65/93/65 5/84/5 74/88/74 
f 73/85/73 70/80/70 30/30/30 
f 5/5/5 65/73/65 6/6/6 
f 34/34/34 36/36/36 46/104/46 
f 16/16/16 54/101/54 17/17/17 
f 16/105/16 15/15/15 59/65/59 
f 3/3/3 2/2/2 14/14/14 
f 26/26/26 19/19/19 56/60/56 
f 23/76/23 44/46/44 21/45/21 
f 19/19/19 26/26/26 38/38/38 
f 43/44/43 15/15/15 42/43/42 
f 37/37/37 61/68/61 25/25/25 
f 13/13/13 50/106/50 63/100/63 
f 77/94/77 2/2/2 1/1/1 
f 61/68/61 46/48/46 24/24/24 
f 46/104/46 61/68/61 34/34/34 
f 57/62/57 39/39/39 9/9/9 
f 47/49/47 49/51/49 74/88/74 
f 71/81/71 22/22/22 28/42/28 
f 20/20/20 51/89/51 72/83/72 
f 36/36/36 76/107/76 45/103/45 
f 59/87/59 68/78/68 62/69/62 
f 75/90/75 5/5/5 4/4/4 
f 14/14/14 13/13/13 63/100/63 
f 42/43/42 15/15/15 29/29/29 
f 27/99/27 71/81/71 28/42/28 
f 36/36/36 65/91/65 76/107/76 
f 26/26/26 28/28/28 21/45/21 
f 47/49/47 48/50/48 49/51/49 
f 57/62/57 37/37/37 39/39/39 
f 77/96/77 68/78/68 27/108/27 
f 40/40/40 69/79/69 77/94/77 
f 10/10/10 34/34/34 11/11/11 
f 4/4/4 6/6/6 53/55/53 
f 39/39/39 38/38/38 44/46/44 
f 33/33/33 10/10/10 8/8/8 
f 43/44/43 22/22/22 71/81/71 
# 150 faces

